<?xml version="1.0" standalone="no"?>
<svg xmlns:xlink="http://www.w3.org/1999/xlink" id="wave" style="transform:rotate(0deg); transition: 0.3s" viewBox="0 0 1440 100" version="1.1" xmlns="http://www.w3.org/2000/svg"><defs><linearGradient id="sw-gradient-0" x1="0" x2="0" y1="1" y2="0"><stop stop-color="rgba(241, 245, 249, 1)" offset="0%"/><stop stop-color="rgba(34, 128, 191, 1)" offset="100%"/></linearGradient></defs><path style="transform:translate(0, 0px); opacity:1" fill="url(#sw-gradient-0)" d="M0,60L34.3,50C68.6,40,137,20,206,16.7C274.3,13,343,27,411,40C480,53,549,67,617,65C685.7,63,754,47,823,40C891.4,33,960,37,1029,38.3C1097.1,40,1166,40,1234,36.7C1302.9,33,1371,27,1440,20C1508.6,13,1577,7,1646,10C1714.3,13,1783,27,1851,35C1920,43,1989,47,2057,41.7C2125.7,37,2194,23,2263,16.7C2331.4,10,2400,10,2469,10C2537.1,10,2606,10,2674,15C2742.9,20,2811,30,2880,33.3C2948.6,37,3017,33,3086,38.3C3154.3,43,3223,57,3291,63.3C3360,70,3429,70,3497,60C3565.7,50,3634,30,3703,20C3771.4,10,3840,10,3909,11.7C3977.1,13,4046,17,4114,28.3C4182.9,40,4251,60,4320,56.7C4388.6,53,4457,27,4526,28.3C4594.3,30,4663,60,4731,70C4800,80,4869,70,4903,65L4937.1,60L4937.1,100L4902.9,100C4868.6,100,4800,100,4731,100C4662.9,100,4594,100,4526,100C4457.1,100,4389,100,4320,100C4251.4,100,4183,100,4114,100C4045.7,100,3977,100,3909,100C3840,100,3771,100,3703,100C3634.3,100,3566,100,3497,100C3428.6,100,3360,100,3291,100C3222.9,100,3154,100,3086,100C3017.1,100,2949,100,2880,100C2811.4,100,2743,100,2674,100C2605.7,100,2537,100,2469,100C2400,100,2331,100,2263,100C2194.3,100,2126,100,2057,100C1988.6,100,1920,100,1851,100C1782.9,100,1714,100,1646,100C1577.1,100,1509,100,1440,100C1371.4,100,1303,100,1234,100C1165.7,100,1097,100,1029,100C960,100,891,100,823,100C754.3,100,686,100,617,100C548.6,100,480,100,411,100C342.9,100,274,100,206,100C137.1,100,69,100,34,100L0,100Z"/></svg>