<?xml version="1.0" standalone="no"?>
<svg xmlns:xlink="http://www.w3.org/1999/xlink" id="wave" style="transform:rotate(0deg); transition: 0.3s" viewBox="0 0 1440 170" version="1.1" xmlns="http://www.w3.org/2000/svg"><defs><linearGradient id="sw-gradient-0" x1="0" x2="0" y1="1" y2="0"><stop stop-color="rgba(241, 245, 249, 1)" offset="0%"/><stop stop-color="rgba(34, 128, 191, 1)" offset="100%"/></linearGradient></defs><path style="transform:translate(0, 0px); opacity:1" fill="url(#sw-gradient-0)" d="M0,136L34.3,116.2C68.6,96,137,57,206,51C274.3,45,343,74,411,93.5C480,113,549,125,617,110.5C685.7,96,754,57,823,56.7C891.4,57,960,96,1029,102C1097.1,108,1166,79,1234,59.5C1302.9,40,1371,28,1440,28.3C1508.6,28,1577,40,1646,56.7C1714.3,74,1783,96,1851,96.3C1920,96,1989,74,2057,76.5C2125.7,79,2194,108,2263,116.2C2331.4,125,2400,113,2469,90.7C2537.1,68,2606,34,2674,28.3C2742.9,23,2811,45,2880,53.8C2948.6,62,3017,57,3086,68C3154.3,79,3223,108,3291,104.8C3360,102,3429,68,3497,45.3C3565.7,23,3634,11,3703,28.3C3771.4,45,3840,91,3909,110.5C3977.1,130,4046,125,4114,113.3C4182.9,102,4251,85,4320,87.8C4388.6,91,4457,113,4526,127.5C4594.3,142,4663,147,4731,130.3C4800,113,4869,74,4903,53.8L4937.1,34L4937.1,170L4902.9,170C4868.6,170,4800,170,4731,170C4662.9,170,4594,170,4526,170C4457.1,170,4389,170,4320,170C4251.4,170,4183,170,4114,170C4045.7,170,3977,170,3909,170C3840,170,3771,170,3703,170C3634.3,170,3566,170,3497,170C3428.6,170,3360,170,3291,170C3222.9,170,3154,170,3086,170C3017.1,170,2949,170,2880,170C2811.4,170,2743,170,2674,170C2605.7,170,2537,170,2469,170C2400,170,2331,170,2263,170C2194.3,170,2126,170,2057,170C1988.6,170,1920,170,1851,170C1782.9,170,1714,170,1646,170C1577.1,170,1509,170,1440,170C1371.4,170,1303,170,1234,170C1165.7,170,1097,170,1029,170C960,170,891,170,823,170C754.3,170,686,170,617,170C548.6,170,480,170,411,170C342.9,170,274,170,206,170C137.1,170,69,170,34,170L0,170Z"/></svg>